<?xml version="1.0" standalone="no"?>
<!DOCTYPE svg PUBLIC "-//W3C//DTD SVG 20010904//EN"
 "http://www.w3.org/TR/2001/REC-SVG-20010904/DTD/svg10.dtd">
<svg version="1.0" xmlns="http://www.w3.org/2000/svg"
 width="150.000000pt" height="150.000000pt" viewBox="0 0 150.000000 150.000000"
 preserveAspectRatio="xMidYMid meet">
<metadata>
Created by potrace 1.10, written by Peter Selinger 2001-2011
</metadata>
<g transform="translate(0.000000,150.000000) scale(0.100000,-0.100000)"
fill="#000000" stroke="none">
<path d="M350 1471 c23 -33 21 -36 -32 -45 -43 -8 -61 -36 -23 -36 14 0 28 0
31 1 12 1 22 -24 18 -45 -2 -11 2 -24 9 -28 8 -5 7 -8 -5 -8 -10 0 -18 7 -18
15 0 8 -6 12 -14 9 -18 -7 -8 -44 11 -44 12 0 13 -3 4 -13 -6 -8 -7 -18 -3
-22 4 -5 2 -5 -5 -2 -6 4 -14 1 -17 -5 -3 -7 -4 -1 -2 15 4 33 -13 48 -21 18
-3 -12 -10 -21 -16 -21 -6 0 -1 -7 11 -16 12 -8 20 -20 17 -25 -7 -11 -3 -11
19 -3 9 3 13 10 10 15 -3 5 0 9 5 9 6 0 11 7 11 16 0 14 2 14 16 3 14 -11 19
-9 35 11 10 14 19 21 20 15 4 -31 3 -41 -6 -48 -6 -4 0 -10 13 -13 19 -6 22
-11 17 -33 -9 -34 -27 -45 -43 -24 -11 16 -12 15 -9 -7 2 -14 9 -25 15 -24 7
1 19 2 27 3 8 0 18 13 21 28 6 23 8 24 19 10 13 -18 30 -24 20 -7 -8 14 8 13
22 -1 7 -7 17 -8 25 -3 14 9 19 11 43 13 8 0 15 5 15 11 0 5 -6 7 -14 4 -19
-7 -31 15 -16 29 9 9 11 9 8 -3 -2 -8 4 -14 12 -15 9 0 15 -11 17 -27 2 -30
-6 -35 -24 -17 -9 9 -12 6 -10 -10 1 -19 6 -22 28 -17 14 3 31 1 38 -5 7 -6 8
-6 2 2 -5 6 -7 18 -4 27 4 10 2 13 -5 8 -7 -4 -12 -2 -12 4 0 7 7 10 15 6 8
-3 15 -2 15 2 0 12 -14 29 -30 35 -10 4 -8 6 7 6 16 1 21 6 17 16 -5 11 1 15
22 15 20 0 25 3 16 9 -14 8 -12 50 2 84 12 25 25 21 22 -7 -3 -23 19 -44 32
-31 3 3 0 5 -7 5 -9 0 -9 5 0 23 7 12 17 25 23 29 8 5 7 8 -1 8 -7 0 -13 9
-13 20 0 19 10 24 38 21 10 -2 12 4 7 18 -5 15 -2 21 9 21 9 0 16 -7 16 -15 0
-8 5 -15 10 -15 6 0 10 5 10 12 0 6 3 8 7 4 4 -4 -3 -15 -16 -25 -17 -13 -19
-18 -7 -18 8 0 18 7 21 16 5 13 10 12 26 -9 12 -14 18 -19 14 -12 -3 6 0 12 7
12 9 0 9 3 -2 10 -10 6 -11 10 -2 10 17 0 15 17 -4 24 -8 3 -12 2 -9 -3 3 -5
1 -12 -5 -16 -6 -4 -10 6 -10 24 0 16 -5 33 -12 37 -8 5 -9 0 -6 -14 7 -26 -9
-29 -29 -4 -8 9 -11 11 -7 3 6 -11 3 -13 -12 -7 -10 4 -15 4 -11 0 4 -4 -9
-22 -28 -41 -19 -18 -29 -33 -24 -33 6 0 7 -4 4 -10 -3 -5 -1 -10 5 -10 6 0 8
-5 4 -12 -5 -8 -13 -5 -24 10 -10 12 -21 18 -24 15 -4 -4 -9 3 -12 14 -3 12
-21 29 -40 38 -19 9 -34 22 -34 30 0 8 -9 15 -20 15 -11 0 -20 -4 -20 -8 0
-15 36 -42 54 -42 15 0 17 -6 11 -36 -6 -35 -5 -36 10 -20 22 21 39 16 43 -13
2 -15 0 -21 -7 -17 -10 6 -16 -13 -12 -36 2 -17 -18 -7 -24 12 -3 11 -12 20
-20 20 -16 0 -29 30 -12 30 7 1 1 10 -12 21 -28 23 -76 22 -76 -1 0 -11 9 -14
37 -12 31 3 37 1 32 -12 -3 -9 0 -24 7 -33 10 -12 10 -15 2 -9 -8 4 -13 2 -13
-5 0 -6 10 -10 23 -7 12 2 29 -4 40 -14 16 -17 14 -22 -6 -19 -4 1 -7 -4 -6
-11 4 -33 -2 -36 -60 -35 -48 1 -61 4 -64 18 -3 12 1 17 13 16 11 -1 16 -7 12
-17 -4 -12 -2 -12 8 -3 7 6 20 9 29 6 11 -4 10 -1 -4 10 -21 16 -3 19 23 4 6
-5 12 -4 12 1 0 5 -11 14 -25 20 -14 6 -25 8 -25 3 0 -5 -13 -11 -29 -13 -24
-3 -27 -1 -23 15 4 14 7 16 13 5 7 -10 9 -9 9 5 0 22 -26 22 -34 1 -4 -9 -9
-14 -13 -11 -3 4 -12 2 -19 -4 -10 -8 -19 -5 -36 12 -21 20 -21 21 -3 15 19
-6 19 -5 3 8 -22 16 -23 27 -3 20 8 -4 15 -1 15 7 0 7 -3 10 -6 6 -11 -11 -62
15 -67 35 -3 11 -3 17 0 14 4 -3 12 -1 20 5 10 9 13 6 13 -14 0 -14 7 -27 15
-30 25 -10 28 14 4 39 -25 27 -31 54 -14 66 6 5 5 12 -4 20 -12 11 -13 10 -6
-2 6 -12 5 -13 -6 -2 -7 6 -19 12 -27 12 -10 0 -8 -8 8 -29z m25 -131 c-3 -5
-1 -10 6 -10 7 0 9 -3 6 -7 -4 -3 -2 -12 3 -18 14 -17 -11 -37 -30 -24 -13 8
-13 10 -1 18 12 8 12 12 2 24 -9 12 -9 16 1 20 19 8 20 8 13 -3z m111 -81 c3
-5 1 -16 -5 -23 -9 -11 -6 -15 14 -20 14 -4 25 -12 26 -19 0 -6 4 -4 7 5 7 17
8 17 19 0 8 -14 8 -19 0 -19 -7 0 -19 -2 -27 -4 -8 -2 -14 2 -15 10 0 8 -6 16
-14 19 -8 3 -11 0 -7 -7 5 -7 1 -9 -9 -5 -8 4 -20 15 -26 25 -5 11 -13 17 -17
15 -5 -3 -8 3 -9 13 -1 13 6 18 28 19 16 0 31 -4 35 -9z"/>
<path d="M678 1492 c-10 -2 -18 -8 -18 -14 0 -5 7 -7 15 -4 10 4 20 -3 27 -19
6 -14 17 -25 25 -25 11 0 11 4 1 23 -7 12 -11 26 -10 30 1 5 -2 6 -7 3 -5 -4
-11 -3 -13 2 -1 4 -11 6 -20 4z"/>
<path d="M519 1463 c0 -11 -3 -13 -6 -5 -8 19 -23 14 -23 -8 0 -13 7 -20 20
-20 15 0 20 7 20 25 0 28 -10 35 -11 8z"/>
<path d="M610 1470 c0 -10 15 -14 34 -11 5 1 6 -5 3 -13 -5 -13 -2 -13 18 -4
26 12 35 31 11 22 -8 -3 -17 -1 -21 5 -8 14 -45 14 -45 1z"/>
<path d="M428 1429 c-3 -19 -1 -41 4 -49 6 -11 7 -8 3 8 -7 23 -6 23 17 8 14
-9 27 -13 31 -10 9 9 -4 35 -14 28 -5 -3 -9 -1 -9 3 0 5 -6 18 -14 28 -12 17
-14 16 -18 -16z"/>
<path d="M955 1438 c9 -6 47 -11 84 -13 37 -1 81 -10 98 -18 17 -9 34 -13 38
-9 5 4 5 -1 1 -12 -5 -15 -2 -18 18 -14 21 4 23 3 13 -13 -6 -10 -22 -22 -35
-28 -13 -6 -21 -8 -18 -3 2 4 1 14 -5 22 -6 11 -9 6 -9 -17 l0 -33 35 17 c19
9 35 22 35 28 0 7 10 16 23 22 20 9 17 12 -38 38 -33 15 -81 29 -107 31 -144
11 -151 11 -133 2z"/>
<path d="M900 1419 c0 -14 41 -51 48 -44 3 3 -3 14 -12 24 -17 19 -17 19 6 14
12 -3 19 -2 15 3 -13 13 -57 16 -57 3z"/>
<path d="M754 1374 c12 -25 15 -25 20 3 3 12 -2 19 -13 19 -14 0 -15 -4 -7
-22z"/>
<path d="M963 1385 c0 -8 5 -15 10 -15 5 0 4 -7 -4 -16 -7 -8 -20 -13 -30 -11
-12 3 -16 0 -12 -8 2 -8 13 -13 23 -12 10 1 17 4 14 8 -2 4 0 10 5 13 5 4 12
2 16 -4 10 -16 21 -12 21 9 0 11 -5 19 -11 18 -5 -1 -9 6 -7 16 2 9 -3 17 -11
17 -7 0 -14 -7 -14 -15z"/>
<path d="M482 1353 c-6 -2 -10 -8 -7 -13 6 -10 45 -1 45 11 0 10 -17 11 -38 2z"/>
<path d="M840 1335 c0 -3 7 -17 16 -30 9 -13 13 -29 9 -34 -4 -7 0 -8 10 -5
12 5 13 10 6 17 -14 14 -14 30 -1 22 22 -14 8 4 -15 19 -14 9 -25 14 -25 11z"/>
<path d="M1027 1323 c-13 -12 -7 -24 19 -33 24 -9 24 -11 9 -26 -10 -11 -13
-19 -6 -23 15 -10 2 -51 -15 -44 -8 3 -14 0 -14 -6 0 -6 3 -10 8 -10 22 4 30
-3 25 -21 -5 -20 -13 -20 -60 -3 -7 3 -13 0 -13 -5 0 -6 -8 -13 -18 -16 -10
-3 -18 -16 -19 -28 -2 -22 -2 -22 9 -3 6 11 11 21 12 21 1 1 11 5 23 8 16 5
23 2 28 -13 4 -12 12 -18 21 -14 25 9 15 -17 -11 -29 -13 -6 -22 -15 -19 -20
3 -5 1 -15 -5 -21 -5 -7 -8 -23 -4 -35 6 -23 18 -28 28 -12 3 6 2 10 -3 10 -5
0 -9 6 -9 14 0 8 8 11 21 8 l21 -5 -20 23 c-11 13 -14 20 -8 16 18 -10 53 -16
53 -9 0 3 -7 11 -17 18 -17 13 -9 40 9 29 7 -4 8 -2 4 4 -4 7 -3 12 3 12 5 0
16 3 25 6 13 5 16 -1 16 -25 0 -31 -14 -42 -23 -18 -2 6 -4 -1 -4 -18 0 -16
-6 -31 -12 -33 -6 -2 -11 -10 -11 -17 0 -7 -12 -16 -26 -19 -17 -5 -24 -12
-20 -21 3 -8 1 -15 -4 -15 -6 0 -10 5 -10 12 0 9 -3 9 -12 0 -17 -17 -28 -15
-27 6 0 10 3 12 6 4 8 -20 22 -4 16 19 -5 16 -8 18 -15 7 -5 -8 -6 -2 -2 16 5
20 4 27 -4 22 -8 -5 -10 -1 -5 10 5 13 3 15 -7 9 -9 -5 -11 -4 -6 4 4 6 11 9
16 6 10 -6 33 31 28 46 -2 5 -13 1 -25 -10 -24 -23 -49 -19 -58 8 -6 20 -65
28 -65 8 0 -7 11 -13 27 -12 18 0 28 -5 28 -15 1 -30 16 -58 34 -63 14 -3 17
-11 14 -31 -4 -16 1 -33 10 -44 9 -10 16 -26 16 -37 -1 -51 13 -160 21 -170 6
-7 6 -15 2 -19 -4 -4 -2 -6 3 -4 6 2 11 0 13 -4 1 -5 -1 -8 -4 -7 -13 2 -23
-27 -30 -88 -4 -40 -10 -60 -17 -56 -6 4 -8 -2 -5 -15 6 -22 -12 -35 -36 -26
-7 3 -16 -1 -19 -10 -5 -12 0 -13 25 -5 35 9 44 6 33 -11 -4 -6 -13 -9 -21 -6
-7 3 -16 0 -20 -6 -4 -7 -3 -8 4 -4 16 10 15 -25 -2 -47 -16 -20 -23 -21 -29
-4 -2 6 -3 3 -1 -9 4 -22 -28 -59 -40 -47 -4 4 -4 -1 0 -12 6 -16 4 -18 -6 -8
-14 13 -6 48 9 38 5 -3 12 -1 15 4 14 22 -13 18 -34 -4 -20 -22 -22 -28 -11
-51 10 -23 14 -24 29 -13 9 7 14 9 10 5 -4 -5 -2 -16 5 -25 11 -14 10 -14 -5
-2 -16 12 -18 11 -18 -8 0 -14 -4 -20 -11 -15 -7 4 -7 -1 1 -16 10 -19 10 -21
-8 -11 -14 7 -19 7 -19 -4 0 -8 4 -12 9 -9 4 3 5 -2 1 -11 -3 -9 -9 -13 -12
-8 -3 5 -12 8 -18 7 -7 -1 -17 -2 -23 -3 -5 0 -6 -9 -3 -18 5 -12 2 -15 -10
-10 -9 3 -23 0 -31 -9 -8 -8 -17 -10 -20 -5 -3 5 -15 11 -26 14 -11 3 -18 1
-14 -4 3 -5 1 -9 -5 -9 -5 0 -12 6 -14 13 -3 7 -6 5 -6 -5 -1 -16 5 -20 25
-17 4 0 11 -5 15 -13 5 -7 9 -8 9 -3 0 6 20 10 44 9 27 0 44 4 43 10 -1 6 8
11 21 10 12 0 22 3 22 8 0 4 6 8 14 8 14 0 33 53 27 75 -1 6 3 4 10 -3 7 -6
18 -12 23 -12 6 0 4 5 -4 10 -10 6 -11 10 -3 10 15 0 12 32 -5 52 -9 12 -9 15
3 15 8 0 11 -5 8 -10 -3 -6 -1 -7 5 -3 7 4 12 19 12 33 0 15 3 23 6 20 4 -3
15 5 26 18 10 14 22 24 26 24 19 -3 22 3 8 17 -14 14 -13 18 9 40 25 25 33 40
15 29 -5 -3 -10 -1 -10 4 0 6 5 11 10 11 6 0 10 5 10 11 0 5 -4 8 -9 4 -6 -3
-6 6 -1 25 6 22 6 29 -3 24 -7 -3 -3 1 7 10 14 11 16 19 9 28 -19 23 -11 45
14 42 13 -1 21 1 18 5 -2 5 0 22 5 40 7 24 6 31 -6 31 -8 0 -14 5 -14 11 0 5
-5 7 -10 4 -8 -5 -7 -11 1 -21 7 -8 7 -14 1 -14 -17 0 -22 29 -7 44 8 8 15 19
15 25 0 17 22 24 31 10 7 -11 9 -11 9 -1 0 7 -10 17 -22 22 -13 5 -18 9 -11 9
6 1 15 10 18 21 4 11 11 18 16 15 5 -4 9 -1 9 4 0 6 -8 11 -17 11 -13 0 -15 2
-5 8 8 5 10 16 5 28 -6 17 -5 17 10 5 15 -12 17 -12 11 3 -4 11 -2 15 8 11 12
-5 14 4 12 45 -2 46 -1 50 12 33 13 -17 14 -17 9 2 -4 15 -3 15 7 -3 9 -19 9
-25 -1 -31 -9 -6 -6 -10 11 -15 l23 -6 -22 -19 -22 -18 24 0 c24 0 42 22 26
32 -5 3 -7 15 -3 27 4 16 2 19 -8 13 -9 -5 -11 -4 -6 4 4 6 0 18 -8 27 -9 8
-16 20 -16 27 0 6 7 2 15 -9 15 -18 15 -18 8 0 -4 13 -3 17 5 12 20 -12 13 9
-8 24 -11 8 -20 19 -20 24 0 6 5 5 12 -2 15 -15 28 -15 28 -1 0 5 -4 8 -9 4
-6 -3 -13 10 -17 30 -3 19 -10 35 -14 35 -11 0 -7 34 5 42 6 5 3 8 -6 8 -9 0
-22 -7 -29 -15 -10 -12 -9 -15 4 -15 15 0 15 -3 2 -35 -9 -21 -11 -35 -5 -35
6 0 7 -5 4 -11 -4 -6 -9 -8 -12 -5 -3 3 -15 0 -26 -5 -18 -10 -19 -9 -12 17 5
16 8 42 7 57 -1 15 3 25 7 22 5 -2 14 2 21 10 12 14 7 19 -13 16 -5 -1 -6 3
-2 9 3 6 10 8 15 5 5 -3 3 8 -3 25 -6 17 -17 28 -24 26 -7 -3 -10 1 -6 10 5
14 -18 20 -30 7z m39 -355 c4 -7 3 -8 -4 -4 -8 5 -12 -2 -12 -18 0 -14 -4 -26
-9 -26 -10 0 -7 32 4 50 8 13 12 13 21 -2z m-40 -36 c-3 -2 1 -14 9 -25 12
-18 13 -23 1 -36 -8 -9 -16 -25 -20 -36 -3 -11 -3 -3 0 18 3 24 2 37 -4 33 -6
-4 -9 5 -7 19 1 14 -2 25 -7 25 -5 0 -7 4 -3 10 3 5 12 7 21 3 8 -3 13 -8 10
-11z"/>
<path d="M919 1298 c-1 -7 -1 -16 0 -20 0 -5 -3 -8 -7 -8 -4 0 -8 -9 -9 -19
-1 -13 3 -18 12 -15 8 3 11 12 8 20 -3 8 1 14 8 14 11 0 11 3 -1 10 -10 6 -11
10 -2 10 6 0 12 5 12 10 0 15 -20 12 -21 -2z"/>
<path d="M704 1271 c13 -13 18 -13 28 -2 10 11 10 12 1 7 -7 -4 -13 -3 -13 2
0 5 -7 9 -15 9 -14 0 -14 -2 -1 -16z"/>
<path d="M803 1273 c15 -4 16 -7 5 -20 -11 -14 -11 -15 2 -11 8 2 16 12 18 21
3 12 -3 17 -20 16 -18 -1 -19 -2 -5 -6z"/>
<path d="M234 1236 c-6 -6 -8 -21 -4 -31 9 -24 3 -38 -13 -28 -7 4 -5 -2 3
-12 9 -11 10 -16 3 -11 -9 5 -13 0 -13 -14 0 -12 -4 -19 -8 -16 -4 2 -8 -4 -8
-15 0 -10 6 -19 14 -19 7 0 11 -4 8 -8 -8 -13 9 -32 21 -24 9 6 9 15 -2 36
-12 22 -12 26 -2 17 8 -6 18 -7 22 -3 5 4 5 1 1 -5 -11 -19 13 -16 32 4 16 16
16 16 0 10 -10 -4 -18 -2 -18 4 0 6 -6 9 -13 6 -8 -3 -13 4 -14 22 0 14 1 19
4 10 5 -21 50 -31 57 -13 3 8 13 14 21 14 9 0 14 -4 11 -8 -2 -4 4 -8 15 -8
18 0 19 1 4 12 -15 11 -14 14 7 25 29 15 38 28 31 46 -4 10 -11 9 -37 -5 -32
-18 -48 -33 -41 -41 3 -2 10 1 17 6 20 15 50 24 43 13 -3 -6 -13 -10 -21 -10
-8 0 -14 -4 -14 -10 0 -5 -14 -10 -31 -10 -17 0 -28 -4 -24 -10 3 -5 0 -10 -8
-10 -18 0 -29 24 -17 36 5 5 3 21 -3 36 -9 20 -15 24 -23 14z"/>
<path d="M267 1221 c3 -12 10 -21 15 -21 5 0 6 -4 3 -10 -3 -5 -1 -10 4 -10
13 0 14 13 4 24 -5 4 -8 13 -8 19 0 5 -5 12 -12 14 -7 3 -9 -3 -6 -16z"/>
<path d="M664 1218 c12 -20 26 -24 26 -8 0 6 -6 10 -12 10 -9 0 -8 3 2 10 12
7 10 9 -6 8 -18 -2 -20 -5 -10 -20z"/>
<path d="M760 1231 c0 -7 -7 -11 -14 -8 -10 4 -13 1 -9 -9 3 -7 9 -14 14 -14
12 0 24 29 15 37 -3 4 -6 1 -6 -6z"/>
<path d="M852 1219 c-7 -10 -8 -19 -3 -19 13 0 33 28 23 33 -4 3 -13 -3 -20
-14z"/>
<path d="M926 1222 c-4 -6 -13 -9 -20 -6 -8 3 -17 1 -21 -5 -3 -6 0 -9 8 -5 8
3 20 -2 27 -11 7 -8 22 -15 34 -15 12 0 16 3 10 8 -6 4 -15 15 -21 26 -6 12
-13 15 -17 8z"/>
<path d="M16 1204 c-22 -22 -20 -25 9 -12 14 6 25 15 25 20 0 13 -17 9 -34 -8z"/>
<path d="M1003 1204 c-5 -13 -7 -13 -14 -2 -7 10 -9 9 -9 -3 0 -18 24 -42 33
-33 3 3 3 13 0 21 -3 8 0 19 8 24 10 6 11 9 1 9 -7 0 -15 -7 -19 -16z"/>
<path d="M643 1174 c-1 -19 3 -34 8 -34 8 0 13 22 10 42 0 4 7 4 17 1 21 -8
14 1 -14 15 -18 10 -20 8 -21 -24z"/>
<path d="M726 1182 c4 -15 0 -24 -12 -29 -10 -4 -19 -2 -22 5 -7 22 -22 12
-22 -14 0 -22 3 -25 23 -20 13 3 46 2 75 -3 32 -5 53 -4 55 2 1 5 20 11 41 12
21 1 42 9 47 16 6 10 9 7 10 -11 1 -15 3 -18 6 -9 2 9 14 22 26 28 21 11 20
11 -5 6 -17 -3 -28 -1 -28 6 0 6 -7 3 -16 -5 -14 -15 -41 -19 -104 -18 -39 0
-42 1 -35 12 3 6 -1 7 -9 4 -16 -6 -23 10 -8 19 4 2 2 2 -5 1 -6 -2 -14 2 -17
9 -3 7 -3 2 0 -11z"/>
<path d="M440 1130 c-7 -16 -17 -27 -22 -24 -6 4 -5 10 3 15 8 5 9 9 3 9 -21
0 -35 -25 -21 -40 10 -10 9 -12 -5 -7 -9 3 -24 -3 -34 -14 -17 -19 -19 -19
-26 -2 -7 17 -8 17 -5 -1 1 -10 13 -25 27 -33 21 -13 22 -13 8 -1 -17 14 -17
16 0 32 18 15 19 15 30 -8 8 -19 8 -26 -1 -30 -9 -3 -9 -5 1 -5 6 -1 12 -5 12
-11 0 -6 -3 -9 -7 -9 -26 4 -34 -1 -21 -15 21 -22 51 -1 43 31 -3 14 -2 22 3
19 5 -3 12 13 15 35 3 22 13 46 23 53 9 7 14 18 10 24 -12 19 -23 14 -36 -18z"/>
<path d="M525 1151 c-7 -12 12 -24 25 -16 11 7 4 25 -10 25 -5 0 -11 -4 -15
-9z"/>
<path d="M337 1117 c-3 -9 -13 -17 -21 -17 -8 0 -17 -4 -20 -9 -3 -4 6 -6 19
-3 14 2 25 9 25 14 0 7 5 6 13 -1 10 -8 14 -7 14 4 0 8 -4 12 -8 9 -4 -2 -9 1
-11 8 -3 8 -7 6 -11 -5z"/>
<path d="M1280 1086 c0 -14 4 -27 8 -30 5 -3 6 8 4 25 -5 35 -12 38 -12 5z"/>
<path d="M1436 1093 c-4 -9 -2 -20 4 -25 5 -4 8 -5 5 -2 -2 4 0 15 6 25 6 11
6 19 0 19 -5 0 -12 -8 -15 -17z"/>
<path d="M265 1052 c-8 -22 -6 -28 5 -12 6 10 10 11 10 3 0 -7 4 -13 10 -13 5
0 7 7 4 15 -5 11 -2 13 12 8 11 -4 15 -3 10 5 -9 15 -44 11 -51 -6z"/>
<path d="M800 1063 c5 -2 8 -8 5 -13 -3 -4 2 -13 10 -20 10 -9 15 -9 15 -1 0
6 -4 11 -10 11 -5 0 -9 5 -7 11 1 6 -4 13 -11 15 -7 1 -8 0 -2 -3z"/>
<path d="M689 1055 c-1 -3 -2 -10 -3 -15 0 -6 -8 -15 -16 -20 -8 -5 -10 -10
-4 -10 11 0 44 32 44 43 0 8 -19 10 -21 2z"/>
<path d="M2 985 c0 -59 1 -65 9 -38 5 18 5 47 0 70 -8 34 -9 31 -9 -32z"/>
<path d="M236 1042 c-3 -6 -15 -8 -26 -5 -11 3 -26 1 -33 -5 -7 -6 -29 -12
-49 -14 -20 -1 -34 -6 -32 -10 3 -4 1 -8 -5 -8 -6 0 -21 -18 -33 -40 -13 -22
-31 -43 -40 -46 -10 -3 -18 -14 -18 -25 0 -15 7 -19 34 -19 19 0 37 4 40 8 3
5 -10 8 -30 7 -29 -2 -33 0 -23 11 6 8 18 14 26 14 8 0 11 5 7 12 -4 7 -3 8 5
4 6 -4 24 -5 40 -1 22 5 28 11 27 32 -1 14 5 28 12 30 8 3 10 -2 6 -14 -5 -14
-4 -15 4 -3 8 10 7 19 -1 29 -9 12 -9 13 1 7 20 -12 115 25 100 39 -3 4 -9 2
-12 -3z m-121 -81 c3 -6 -3 -14 -13 -20 -14 -8 -18 -6 -18 10 0 20 20 26 31
10z"/>
<path d="M749 1014 c-7 -9 -22 -20 -34 -24 -20 -9 -20 -9 1 -9 13 -1 29 10 38
24 18 28 15 33 -5 9z"/>
<path d="M323 1004 c0 -7 5 -12 10 -11 6 1 12 -15 13 -36 3 -33 1 -37 -12 -26
-8 6 -17 9 -21 5 -3 -3 0 -6 8 -6 12 0 12 -2 -1 -10 -8 -5 -15 -19 -15 -32 0
-24 -28 -32 -52 -15 -17 13 -153 20 -153 9 0 -11 96 -25 110 -17 6 4 15 -6 20
-20 5 -14 14 -24 19 -21 4 3 7 -8 5 -24 -2 -16 2 -32 8 -36 7 -5 8 -3 3 6 -5
8 -4 11 2 7 6 -4 9 -22 6 -42 -3 -26 0 -35 12 -35 18 0 20 36 4 77 -5 15 -7
24 -3 20 4 -4 15 0 24 8 16 14 19 14 34 0 9 -9 16 -28 16 -41 0 -14 9 -34 20
-46 l20 -22 1 37 c1 20 2 50 3 66 0 16 -3 27 -7 24 -5 -3 -3 4 4 15 10 17 10
24 -4 46 -21 31 -21 40 -2 32 8 -3 15 0 16 7 0 7 4 3 9 -8 7 -17 9 -15 9 12 1
35 -9 46 -33 37 -11 -4 -13 -10 -7 -18 7 -8 4 -12 -10 -12 -20 0 -21 3 -21 48
-1 16 -7 28 -18 31 -9 2 -17 -1 -17 -9z m43 -107 c0 -12 -7 -26 -15 -31 -11
-7 -11 -10 0 -17 8 -5 17 -3 21 4 5 8 8 4 8 -10 0 -27 -6 -29 -26 -8 -19 19
-34 19 -34 1 0 -8 -5 -18 -12 -22 -7 -4 -8 -3 -4 4 5 8 0 12 -13 12 -11 0 -23
5 -26 10 -6 10 7 14 31 11 7 -1 14 6 18 14 3 9 9 14 14 11 4 -2 9 5 9 17 2 15
0 18 -6 8 -5 -8 -11 -9 -15 -3 -6 11 5 17 34 19 12 1 17 -5 16 -20z"/>
<path d="M845 980 c-16 -26 -13 -35 13 -37 14 0 20 2 15 5 -6 4 -12 16 -15 27
-3 17 -5 18 -13 5z"/>
<path d="M1218 963 c12 -2 32 -2 45 0 12 2 2 4 -23 4 -25 0 -35 -2 -22 -4z"/>
<path d="M1440 962 c0 -10 46 -10 56 1 4 4 -7 7 -24 7 -18 0 -32 -4 -32 -8z"/>
<path d="M758 953 c-19 -5 -24 -18 -9 -27 5 -3 11 1 15 9 3 9 12 12 22 8 12
-4 15 -3 10 5 -7 12 -9 13 -38 5z"/>
<path d="M1213 933 c11 -11 69 -14 62 -3 -3 6 -20 10 -37 10 -17 0 -28 -3 -25
-7z"/>
<path d="M1124 909 c-3 -6 -4 -11 -3 -12 2 -2 13 -9 24 -17 11 -8 17 -10 12
-5 -4 4 0 16 8 25 13 14 12 16 -10 18 -13 1 -27 -3 -31 -9z"/>
<path d="M881 891 c-8 -5 -20 -7 -28 -4 -7 3 -13 0 -13 -5 0 -6 -9 -9 -19 -7
-11 2 -27 -5 -37 -16 -15 -17 -15 -19 -1 -19 9 0 38 8 64 19 26 10 55 16 63
13 13 -5 13 -3 1 11 -7 10 -14 17 -15 17 0 0 -7 -4 -15 -9z"/>
<path d="M1065 861 c-3 -7 0 -8 9 -5 11 4 13 0 9 -17 -4 -15 -3 -20 5 -15 7 4
12 2 12 -3 0 -6 -5 -11 -12 -11 -6 0 -8 -3 -5 -7 4 -3 2 -12 -5 -20 -15 -19
-4 -27 28 -19 20 5 24 10 15 19 -15 15 -14 28 1 25 7 -2 12 9 13 28 0 21 -4
30 -12 27 -7 -3 -11 -8 -8 -12 2 -4 -2 -8 -10 -8 -8 0 -13 5 -12 10 3 14 -20
20 -28 8z"/>
<path d="M479 847 c-1 -1 -2 -14 -3 -30 -3 -27 -3 -27 15 -8 16 17 23 18 59 9
44 -11 45 -22 2 -25 -46 -4 -52 -6 -52 -15 0 -5 -4 -7 -9 -3 -5 3 -13 0 -17
-6 -4 -7 -3 -9 4 -5 5 3 13 0 15 -6 4 -10 8 -10 15 0 8 12 13 12 32 0 20 -12
24 -11 37 10 14 19 41 33 30 15 -3 -5 5 -9 18 -9 29 -2 41 22 14 29 -10 3 -19
12 -19 21 0 12 -10 16 -37 17 -21 0 -53 2 -70 4 -18 2 -33 3 -34 2z"/>
<path d="M1479 824 c-11 -14 -58 -38 -67 -34 -1 0 -13 -11 -25 -25 -12 -14
-29 -27 -38 -28 -8 -2 -27 -14 -42 -28 -33 -30 -93 -67 -83 -50 9 15 4 14 -30
-4 -16 -8 -30 -11 -32 -6 -2 5 -17 6 -35 1 -43 -11 -77 -7 -88 11 -7 12 -9 11
-9 -2 0 -35 32 -40 161 -25 64 8 87 20 165 85 7 6 14 8 17 5 3 -3 13 5 24 18
10 13 32 31 48 40 17 9 36 26 44 37 16 25 9 28 -10 5z"/>
<path d="M774 804 c-12 -18 -14 -27 -5 -37 6 -8 8 -16 5 -20 -3 -3 4 -8 17
-12 17 -6 19 -9 8 -16 -12 -7 -11 -9 1 -9 8 1 24 8 35 17 16 13 17 15 3 10
-23 -8 -48 2 -48 18 0 23 20 28 40 10 21 -19 45 -11 36 11 -7 17 6 18 22 2 10
-9 15 -8 27 5 8 9 12 15 8 12 -3 -3 -16 3 -27 12 -18 16 -19 16 -8 1 12 -16
10 -16 -24 -11 -26 4 -35 3 -30 -5 5 -8 2 -10 -9 -6 -8 4 -21 2 -28 -2 -7 -5
-4 -1 6 9 11 9 28 17 38 17 34 0 20 15 -16 17 -28 1 -39 -3 -51 -23z"/>
<path d="M111 763 c-1 -17 -6 -21 -18 -17 -14 5 -15 4 -4 -4 11 -8 10 -13 -5
-31 -10 -11 -22 -21 -27 -21 -19 0 -59 -48 -54 -66 4 -18 5 -18 6 1 1 18 58
65 80 65 5 0 16 12 26 26 13 20 15 31 7 48 l-11 21 0 -22z"/>
<path d="M400 688 c-1 -5 -3 -16 -4 -26 0 -11 -7 -26 -15 -35 -7 -10 -9 -17
-3 -17 6 0 13 6 16 13 4 6 4 2 2 -10 -2 -12 2 -24 10 -27 16 -6 19 -36 3 -36
-5 0 -8 -4 -4 -9 3 -6 -4 -15 -15 -21 -27 -14 -25 -24 8 -45 27 -18 27 -18 10
2 -20 22 -24 38 -6 27 6 -4 9 -3 6 2 -3 5 0 14 7 21 10 9 14 9 18 -1 3 -8 1
-18 -5 -24 -7 -7 -3 -18 15 -35 25 -23 26 -25 10 -48 -16 -22 -16 -23 0 -10
15 12 18 10 26 -10 5 -13 6 -28 3 -33 -3 -5 0 -6 6 -2 7 4 12 3 12 -3 0 -6 7
-8 15 -5 11 4 13 2 9 -9 -3 -8 -1 -18 5 -22 6 -3 11 -1 11 6 0 7 3 9 7 6 3 -4
-3 -16 -15 -28 -22 -20 -29 -85 -8 -72 5 4 7 -1 3 -10 -4 -10 -10 -23 -13 -31
-3 -9 6 -18 27 -25 25 -8 30 -14 21 -23 -14 -14 13 -37 45 -38 26 0 38 15 21
27 -19 11 -39 13 -33 2 4 -5 -2 -6 -11 -2 -16 6 -15 7 2 20 10 7 12 13 6 13
-7 0 -12 5 -12 11 0 5 5 7 12 3 6 -4 8 -3 5 3 -4 6 0 13 8 16 9 4 12 1 8 -9
-3 -7 0 -14 5 -14 6 0 9 9 7 19 -2 11 3 25 11 32 11 9 14 8 14 -2 0 -12 2 -12
9 -1 4 8 11 13 15 13 3 -1 5 0 4 2 -1 1 4 12 10 23 9 18 8 25 -10 40 -12 11
-18 13 -14 7 17 -29 -10 -9 -57 42 -27 30 -54 55 -59 55 -5 0 -7 -4 -4 -8 2
-4 -4 -9 -15 -9 -10 -1 -19 2 -19 8 0 5 3 8 8 6 7 -2 12 6 12 23 0 5 -3 9 -7
9 -5 -1 -15 -1 -23 0 -13 1 -13 2 0 11 13 8 12 10 -4 10 -13 0 -16 3 -8 13 13
16 -2 54 -26 61 -12 4 -23 23 -31 54 -21 82 -29 107 -31 100z m222 -363 c3 3
8 -1 11 -9 8 -20 -11 -17 -36 6 -11 9 -16 22 -12 29 6 8 11 5 19 -10 7 -12 15
-19 18 -16z m-42 -9 c13 -18 13 -19 0 -12 -9 4 -8 1 3 -7 9 -8 17 -18 17 -22
0 -4 -8 -4 -17 0 -16 5 -16 5 -3 -7 8 -7 20 -19 26 -26 9 -10 13 -8 17 7 3 14
1 18 -9 14 -18 -7 -18 1 0 16 11 9 18 8 30 -4 14 -14 16 -14 16 -1 0 8 4 17
10 21 5 3 5 -7 -1 -25 -6 -16 -14 -28 -19 -25 -4 3 -13 -2 -19 -9 -10 -12 -18
-11 -48 10 -20 13 -40 24 -44 24 -5 0 0 9 11 20 12 12 17 26 13 37 -7 19 -5
18 17 -11z m-22 -72 c28 -2 32 -5 32 -23 0 -11 -5 -23 -11 -26 -6 -4 -8 -13
-5 -21 4 -11 2 -12 -14 -1 -22 13 -26 27 -9 27 5 0 3 10 -5 22 -16 22 -23 53
-8 33 4 -5 13 -10 20 -11z"/>
<path d="M360 658 c0 -17 2 -18 15 -8 8 7 15 14 15 15 0 2 -7 5 -15 9 -10 4
-15 -1 -15 -16z"/>
<path d="M330 648 c0 -7 5 -20 10 -28 8 -11 9 -9 8 13 -2 26 -18 40 -18 15z"/>
<path d="M629 634 c-5 -15 -12 -31 -15 -36 -4 -5 2 -4 13 2 10 7 20 23 21 36
2 32 -6 30 -19 -2z"/>
<path d="M247 619 c-15 -14 -17 -21 -7 -36 10 -16 10 -15 4 5 -5 21 -3 23 15
17 21 -6 26 1 13 21 -5 8 -13 5 -25 -7z"/>
<path d="M734 568 c-4 -6 -23 -8 -44 -4 -21 3 -47 3 -57 -2 -13 -5 -6 -8 27
-12 55 -6 120 -1 120 10 0 12 -39 19 -46 8z"/>
<path d="M726 524 c-4 -11 -12 -14 -24 -9 -18 8 -62 8 -70 0 -3 -2 1 -12 8
-20 11 -13 15 -13 21 -3 5 7 21 11 39 10 21 -3 32 2 36 13 4 9 4 18 1 21 -2 3
-7 -3 -11 -12z"/>
<path d="M749 523 c0 -4 -2 -15 -4 -25 -2 -9 5 -18 17 -21 12 -4 17 -10 13
-17 -5 -8 3 -11 26 -9 24 2 33 -1 31 -10 -4 -18 19 -9 32 13 9 14 6 21 -18 39
-17 12 -35 22 -42 23 -6 1 -21 5 -33 9 -11 3 -21 3 -22 -2z m56 -23 c4 -6 12
-7 18 -4 7 4 8 3 4 -1 -15 -17 -57 -17 -57 0 0 17 25 21 35 5z"/>
<path d="M319 503 c-1 -10 -1 -21 0 -25 2 -11 -10 -10 -63 8 -54 19 -118 14
-145 -10 -16 -14 -22 -15 -52 -2 -54 22 -84 1 -32 -23 23 -11 25 -10 13 3 -9
11 -9 16 -1 16 6 0 15 -9 19 -20 7 -20 8 -20 47 0 48 25 145 34 145 14 0 -7 8
-11 20 -9 11 2 20 -1 20 -7 0 -7 13 2 28 20 25 28 29 29 40 14 11 -15 11 -14
3 4 -6 12 -7 24 -4 28 3 3 -3 6 -15 6 -14 0 -22 -7 -23 -17z"/>
<path d="M602 513 c-6 -3 -9 -10 -6 -15 4 -6 2 -8 -4 -5 -5 4 -17 4 -26 1 -21
-8 -22 -64 -1 -64 8 0 15 5 15 10 0 7 30 8 84 4 57 -5 85 -3 90 5 5 7 1 9 -10
4 -11 -4 -15 -3 -10 5 3 6 1 14 -5 18 -8 4 -9 3 -5 -4 9 -15 -32 -25 -69 -16
-17 3 -40 7 -52 8 l-23 1 21 16 c23 17 23 39 1 32z"/>
<path d="M404 442 c3 -5 0 -13 -6 -15 -10 -4 -10 -7 0 -15 11 -7 11 -12 -2
-24 -8 -9 -13 -18 -10 -21 3 -2 -2 -7 -10 -10 -9 -4 -18 -1 -22 5 -5 7 -2 8 7
4 8 -4 6 -1 -4 7 -16 13 -16 16 -1 28 13 10 17 10 25 -2 5 -8 9 -9 9 -4 0 25
-17 37 -36 26 -28 -16 -78 -35 -87 -32 -5 1 -6 -3 -2 -9 6 -9 -8 -14 -28 -11
-5 1 -6 -3 -2 -9 9 -14 -8 -13 -23 2 -22 22 -39 17 -37 -11 1 -23 5 -26 31
-22 35 4 75 24 93 45 16 19 31 21 31 4 1 -19 38 -60 51 -56 12 4 39 72 39 100
0 9 -5 20 -12 24 -6 4 -8 3 -4 -4z"/>
<path d="M1105 434 c6 -2 9 -40 7 -94 -3 -82 -2 -90 15 -89 10 0 13 3 6 6 -9
3 -13 30 -13 84 0 62 3 78 13 73 8 -5 8 -2 -2 9 -7 9 -19 17 -25 16 -6 0 -7
-2 -1 -5z"/>
<path d="M1151 351 c-2 -90 8 -116 32 -92 9 9 8 11 -5 6 -16 -6 -18 1 -18 70
0 64 2 76 15 71 8 -3 15 -3 15 0 0 7 -27 34 -33 34 -3 0 -5 -40 -6 -89z"/>
<path d="M967 414 c-4 -4 -7 -23 -7 -43 0 -27 -3 -32 -10 -21 -6 9 -10 10 -10
3 0 -6 5 -15 10 -18 6 -3 10 -22 10 -41 0 -28 5 -36 26 -44 29 -11 58 0 68 26
3 8 6 42 6 75 0 33 4 59 10 59 15 0 13 -147 -2 -153 -7 -3 -4 -6 7 -6 18 -1
20 5 20 84 0 81 -1 85 -22 85 -22 0 -23 -4 -23 -67 0 -69 -13 -113 -24 -83 -3
8 -7 44 -9 80 -3 50 -4 46 -3 -18 1 -45 -2 -82 -6 -82 -5 0 -8 9 -8 21 0 11
-5 17 -10 14 -6 -4 -8 -11 -5 -16 4 -5 1 -9 -4 -9 -7 0 -11 29 -11 75 0 68 11
98 23 60 4 -12 5 -11 3 1 -1 19 -18 29 -29 18z"/>
<path d="M1198 365 c-3 -32 -2 -72 2 -89 5 -24 8 -14 12 44 3 41 2 81 -2 89
-4 8 -9 -10 -12 -44z"/>
<path d="M1283 409 c9 -5 18 -22 18 -37 2 -24 2 -25 6 -4 5 24 -12 52 -31 52
-6 0 -3 -5 7 -11z"/>
<path d="M1324 407 c-3 -8 -4 -45 -2 -83 2 -51 7 -69 17 -69 8 0 15 6 17 13 1
7 0 8 -3 2 -14 -28 -23 -2 -23 65 0 69 12 99 23 58 4 -14 5 -12 6 5 1 24 -26
31 -35 9z"/>
<path d="M660 381 c14 -7 46 -15 71 -17 38 -4 47 -2 51 13 4 16 -3 18 -72 18
-70 0 -74 -1 -50 -14z"/>
<path d="M21 381 c-9 -6 -6 -10 10 -14 28 -8 34 -3 16 11 -7 6 -19 7 -26 3z"/>
<path d="M1227 347 c-4 -10 -7 -26 -7 -35 1 -15 2 -15 11 1 6 10 9 25 7 35 -3
16 -4 15 -11 -1z"/>
<path d="M1362 330 c0 -19 2 -27 5 -17 2 9 2 25 0 35 -3 9 -5 1 -5 -18z"/>
<path d="M83 333 c3 -15 1 -20 -9 -16 -8 3 -11 9 -8 14 3 5 0 9 -5 9 -6 0 -11
-5 -11 -11 0 -7 -10 -9 -25 -7 -14 3 -25 1 -25 -4 0 -5 12 -9 28 -7 15 1 38
-3 52 -8 14 -6 26 -7 28 -2 2 5 15 9 28 9 13 0 24 5 24 11 0 5 -4 8 -9 5 -5
-3 -12 2 -15 11 -6 15 -8 14 -20 -2 -13 -18 -14 -18 -25 1 -12 18 -12 18 -8
-3z"/>
<path d="M700 343 c0 -3 5 -13 10 -24 6 -10 7 -19 2 -19 -5 0 -8 -16 -6 -35 1
-19 -2 -37 -7 -41 -5 -3 -7 -10 -4 -15 7 -11 45 7 45 22 0 6 -4 8 -9 5 -18
-11 -21 27 -4 40 20 15 36 13 39 -4 1 -7 0 -8 -3 -2 -2 5 -9 10 -14 10 -5 0
-4 -9 3 -20 7 -11 16 -20 21 -20 4 0 5 5 1 12 -5 8 -2 9 11 4 15 -5 16 -4 5 9
-10 12 -10 15 4 15 9 0 16 5 16 10 0 6 7 10 15 10 17 0 20 16 5 25 -5 3 -10 1
-10 -4 0 -6 -5 -11 -11 -11 -5 0 -8 4 -5 8 3 5 -1 9 -8 9 -8 0 -12 -6 -9 -13
2 -6 -1 -15 -8 -20 -8 -5 -10 -3 -4 6 6 10 2 11 -17 7 -19 -5 -28 -2 -32 9 -3
9 -4 19 -1 23 2 4 -2 8 -10 8 -8 0 -15 -2 -15 -4z"/>
<path d="M1253 300 c0 -30 2 -43 4 -27 2 15 2 39 0 55 -2 15 -4 2 -4 -28z"/>
<path d="M150 280 c6 -11 18 -20 27 -20 14 0 14 -2 -3 -14 -18 -14 -18 -15 0
-22 16 -6 17 -8 2 -16 -9 -5 -14 -14 -10 -19 3 -5 0 -16 -6 -24 -7 -8 -10 -21
-7 -30 4 -8 2 -17 -4 -21 -6 -3 -8 -12 -5 -20 3 -7 -1 -29 -9 -48 -19 -44 -18
-46 0 -46 8 0 15 9 15 19 0 11 4 22 9 25 4 3 7 17 6 31 -2 14 1 25 7 25 6 0 8
12 5 30 -4 17 -2 30 3 30 6 0 10 8 10 18 0 10 6 24 13 31 10 11 9 14 -1 18 -6
3 -9 10 -5 16 18 29 -1 54 -26 34 -10 -8 -13 -8 -8 -1 4 7 0 15 -8 18 -13 4
-14 2 -5 -14z"/>
<path d="M1063 227 c4 -10 7 -36 7 -58 0 -21 4 -39 8 -39 10 0 -1 97 -13 107
-4 5 -5 0 -2 -10z"/>
<path d="M1230 230 c-11 -7 -12 -10 -1 -10 9 0 12 -12 9 -45 -2 -25 0 -45 4
-45 5 0 8 25 8 55 0 30 -1 55 -2 55 -2 0 -10 -5 -18 -10z"/>
<path d="M1284 226 c-8 -22 0 -91 11 -91 6 0 11 11 12 25 l2 25 -9 -25 c-7
-20 -9 -14 -7 28 2 54 0 62 -9 38z"/>
<path d="M1040 182 l5 -47 3 39 c2 21 0 42 -5 47 -4 4 -6 -13 -3 -39z"/>
<path d="M1128 220 c6 -8 12 -20 12 -28 0 -8 -5 -10 -12 -6 -9 5 -9 2 1 -9 11
-14 11 -20 1 -32 -11 -13 -10 -14 4 -9 22 8 21 67 -1 85 -15 11 -16 11 -5 -1z"/>
<path d="M1159 184 c3 -45 14 -57 25 -28 8 21 8 26 -3 20 -4 -3 -6 5 -4 18 3
14 -1 25 -9 28 -10 4 -12 -5 -9 -38z"/>
<path d="M987 214 c-10 -10 -9 -74 2 -74 5 0 11 8 13 18 6 23 -5 66 -15 56z"/>
<path d="M1339 188 c-8 -18 -12 -37 -11 -42 2 -5 -6 -15 -18 -23 -11 -8 -20
-22 -20 -31 1 -27 50 38 51 68 l1 25 8 -25 c7 -21 8 -19 9 18 1 23 -1 42 -3
42 -2 0 -10 -15 -17 -32z"/>
<path d="M963 175 c0 -22 2 -30 4 -17 2 12 2 30 0 40 -3 9 -5 -1 -4 -23z"/>
<path d="M727 153 c-11 -11 -8 -23 5 -20 7 1 12 -3 13 -10 0 -6 3 -15 7 -19 4
-4 3 -13 -3 -20 -7 -8 -7 -14 1 -19 6 -4 9 -2 8 4 -2 5 5 16 15 23 17 13 16
15 -11 41 -15 15 -31 24 -35 20z"/>
<path d="M885 110 c-3 -5 -5 -10 -3 -11 28 -7 38 -5 38 7 0 16 -26 19 -35 4z"/>
<path d="M631 75 c-12 -35 -8 -75 9 -75 5 0 6 16 3 35 -4 27 -2 35 10 35 8 0
17 9 20 20 10 37 -28 23 -42 -15z"/>
<path d="M779 83 c-8 -9 -9 -14 -3 -10 11 7 24 -12 24 -36 0 -8 -4 -7 -12 1
-14 14 -28 16 -28 4 0 -4 14 -16 32 -26 l31 -19 -6 39 c-4 21 -7 45 -7 52 0
17 -15 15 -31 -5z"/>
<path d="M954 88 c-4 -6 -3 -8 4 -4 6 3 18 -1 26 -10 9 -8 16 -11 16 -5 0 17
-38 33 -46 19z"/>
<path d="M1445 91 c-3 -5 -1 -12 5 -16 5 -3 10 -2 10 4 0 5 10 12 23 14 19 4
19 4 -5 6 -15 0 -29 -3 -33 -8z"/>
<path d="M1402 72 c-7 -12 -29 -29 -49 -37 -40 -17 -41 -26 -3 -18 39 7 73 37
68 59 -4 18 -5 17 -16 -4z"/>
<path d="M541 58 c-1 -23 15 -32 23 -12 3 8 2 13 -3 9 -5 -3 -12 1 -14 7 -4 8
-6 7 -6 -4z"/>
<path d="M1303 44 c-15 -16 -16 -24 -4 -24 8 0 24 30 19 35 -2 2 -9 -3 -15
-11z"/>
</g>
</svg>
